<?xml version="1.0" encoding="utf-8"?>
<!-- Generator: Adobe Illustrator 16.0.0, SVG Export Plug-In . SVG Version: 6.00 Build 0)  -->
<!DOCTYPE svg PUBLIC "-//W3C//DTD SVG 1.1//EN" "http://www.w3.org/Graphics/SVG/1.1/DTD/svg11.dtd">
<svg version="1.1" id="Layer_1" xmlns="http://www.w3.org/2000/svg" xmlns:xlink="http://www.w3.org/1999/xlink" x="0px" y="0px"
	 width="61.762px" height="21.356px" viewBox="0 0 61.762 21.356" enable-background="new 0 0 61.762 21.356" xml:space="preserve">
<g>
	<path fill="#9FACA7" d="M1.754,0.224l58.341,0.104c0.816,0,1.545-0.12,1.545,1.628L61.567,21.17H0.281V1.882
		C0.281,1.02,0.364,0.224,1.754,0.224"/>
	<path fill="#FFFFFF" d="M17.768,10.056c0.003,3.876-3.138,7.02-7.013,7.022c-3.876,0.002-7.02-3.139-7.023-7.015v-0.008
		C3.731,6.18,6.871,3.037,10.745,3.034c3.877-0.002,7.02,3.138,7.023,7.014V10.056"/>
	<path d="M16.456,4.34c1.555,1.555,2.334,3.462,2.334,5.716s-0.766,4.137-2.293,5.656c-1.625,1.598-3.542,2.394-5.757,2.394
		c-2.186,0-4.072-0.791-5.654-2.376c-1.583-1.582-2.374-3.472-2.374-5.674S3.502,5.951,5.085,4.34
		c1.542-1.559,3.428-2.336,5.654-2.336C12.994,2.004,14.898,2.781,16.456,4.34 M6.134,5.387C4.818,6.715,4.16,8.271,4.16,10.059
		c0,1.782,0.652,3.327,1.954,4.627c1.301,1.304,2.852,1.957,4.65,1.957s3.363-0.66,4.692-1.975c1.261-1.225,1.892-2.758,1.892-4.609
		c0-1.841-0.641-3.401-1.923-4.683c-1.282-1.281-2.836-1.922-4.661-1.922S7.395,4.097,6.134,5.387 M9.596,9.272
		C9.395,8.833,9.094,8.614,8.692,8.614c-0.709,0-1.063,0.479-1.063,1.434c0,0.955,0.354,1.432,1.063,1.432
		c0.469,0,0.803-0.231,1.004-0.698l0.983,0.524c-0.468,0.833-1.172,1.247-2.108,1.247c-0.724,0-1.303-0.221-1.738-0.664
		c-0.436-0.443-0.653-1.055-0.653-1.833c0-0.767,0.222-1.376,0.672-1.825c0.45-0.449,1.009-0.675,1.678-0.675
		c0.992,0,1.701,0.392,2.13,1.171L9.596,9.272z M14.223,9.272c-0.201-0.439-0.497-0.658-0.884-0.658
		c-0.725,0-1.087,0.479-1.087,1.434c0,0.955,0.362,1.432,1.087,1.432c0.468,0,0.798-0.231,0.984-0.698l1.005,0.524
		c-0.466,0.833-1.17,1.247-2.106,1.247c-0.721,0-1.301-0.221-1.734-0.664c-0.435-0.443-0.652-1.055-0.652-1.833
		c0-0.767,0.22-1.376,0.661-1.825c0.442-0.449,1.004-0.675,1.685-0.675c0.99,0,1.698,0.392,2.127,1.171L14.223,9.272z"/>
	<path fill="#FFFFFF" d="M38.136,7.813c0,3.051-2.475,5.525-5.527,5.525c-3.052,0-5.527-2.475-5.527-5.525
		c0-3.054,2.475-5.527,5.527-5.527C35.661,2.285,38.136,4.759,38.136,7.813"/>
	<path d="M34.209,6.212c0-0.211-0.173-0.386-0.386-0.386h-2.441c-0.212,0-0.385,0.175-0.385,0.386v2.441h0.681v2.891h1.85V8.653
		h0.681V6.212z"/>
	<path d="M33.438,4.669c0,0.461-0.374,0.838-0.836,0.838c-0.46,0-0.834-0.377-0.834-0.838c0-0.459,0.374-0.836,0.834-0.836
		C33.064,3.833,33.438,4.21,33.438,4.669"/>
	<path d="M32.596,1.724c-1.654,0-3.054,0.575-4.198,1.728c-1.176,1.193-1.764,2.607-1.764,4.24c0,1.629,0.588,3.034,1.764,4.205
		c1.175,1.174,2.574,1.764,4.198,1.764c1.643,0,3.067-0.593,4.271-1.777c1.137-1.126,1.704-2.522,1.704-4.191
		c0-1.673-0.578-3.083-1.732-4.24C35.683,2.299,34.269,1.724,32.596,1.724 M32.611,2.797c1.355,0,2.504,0.476,3.45,1.432
		c0.957,0.944,1.436,2.1,1.436,3.463c0,1.37-0.469,2.51-1.404,3.414c-0.988,0.976-2.148,1.464-3.482,1.464
		c-1.336,0-2.486-0.483-3.452-1.445c-0.965-0.965-1.448-2.112-1.448-3.433c0-1.324,0.488-2.477,1.464-3.463
		C30.111,3.272,31.257,2.797,32.611,2.797"/>
	<path d="M60.606,0H1.156C0.519,0,0,0.517,0,1.156v20.2c0,0.146,0.118,0.261,0.261,0.261h61.24c0.143,0,0.261-0.115,0.261-0.261
		v-20.2C61.762,0.517,61.244,0,60.606,0 M1.156,0.521h59.45c0.35,0,0.633,0.285,0.633,0.635v14.001h-42.49
		c-1.557,2.819-4.558,4.731-8.001,4.731c-3.445,0-6.445-1.912-8.003-4.731H0.523V1.156C0.523,0.807,0.807,0.521,1.156,0.521"/>
	<path fill="#FFFFFF" d="M30.878,16.855c0.163,0,0.311,0.017,0.445,0.043c0.135,0.029,0.249,0.076,0.345,0.143
		c0.096,0.063,0.17,0.149,0.222,0.258c0.052,0.107,0.078,0.243,0.078,0.4c0,0.175-0.038,0.314-0.116,0.431
		c-0.078,0.112-0.195,0.208-0.347,0.278c0.211,0.062,0.369,0.169,0.472,0.322c0.103,0.15,0.157,0.332,0.157,0.546
		c0,0.171-0.035,0.319-0.101,0.446c-0.066,0.126-0.158,0.229-0.27,0.308c-0.113,0.079-0.245,0.141-0.388,0.175
		c-0.145,0.042-0.294,0.058-0.448,0.058h-1.655v-3.407H30.878z M30.785,18.232c0.133,0,0.243-0.029,0.33-0.095
		c0.086-0.063,0.128-0.166,0.128-0.306c0-0.082-0.015-0.148-0.042-0.198c-0.03-0.05-0.068-0.089-0.117-0.118
		c-0.046-0.029-0.102-0.051-0.164-0.061c-0.062-0.012-0.127-0.017-0.193-0.017h-0.702v0.794H30.785z M30.828,19.683
		c0.073,0,0.143-0.008,0.211-0.024c0.066-0.016,0.125-0.036,0.177-0.07c0.05-0.032,0.091-0.079,0.121-0.135
		c0.032-0.058,0.046-0.132,0.046-0.222c0-0.174-0.05-0.298-0.148-0.374c-0.099-0.074-0.23-0.114-0.392-0.114h-0.818v0.939H30.828z"
		/>
</g>
<polygon fill="#FFFFFF" points="32.265,16.856 33.106,16.856 33.904,18.203 34.697,16.856 35.534,16.856 34.269,18.958 
	34.269,20.263 33.517,20.263 33.517,18.939 "/>
<polygon fill="#FFFFFF" points="44.228,16.856 45.652,19.142 45.66,19.142 45.66,16.856 46.364,16.856 46.364,20.263 45.613,20.263 
	44.196,17.982 44.186,17.982 44.186,20.263 43.483,20.263 43.483,16.856 "/>
<g>
	<path fill="#FFFFFF" d="M48.491,16.855c0.221,0,0.426,0.035,0.615,0.104c0.19,0.073,0.354,0.177,0.494,0.316
		c0.137,0.14,0.245,0.316,0.323,0.524c0.079,0.211,0.118,0.459,0.118,0.741c0,0.248-0.033,0.478-0.096,0.688
		c-0.063,0.211-0.16,0.391-0.289,0.544c-0.13,0.153-0.29,0.271-0.483,0.361c-0.192,0.087-0.419,0.129-0.682,0.129h-1.472v-3.407
		H48.491z M48.44,19.633c0.107,0,0.213-0.017,0.314-0.053c0.103-0.034,0.193-0.093,0.273-0.175c0.079-0.079,0.143-0.184,0.19-0.315
		c0.048-0.132,0.073-0.29,0.073-0.478c0-0.172-0.017-0.327-0.05-0.465c-0.033-0.139-0.089-0.258-0.166-0.354
		c-0.076-0.099-0.177-0.175-0.302-0.228c-0.126-0.053-0.281-0.077-0.466-0.077h-0.535v2.145H48.44z"/>
	<path fill="#FFFFFF" d="M52.751,7.709c0.003,3.012-2.436,5.453-5.445,5.453c-3.009,0.002-5.45-2.434-5.451-5.444V7.709
		c-0.003-3.006,2.435-5.449,5.443-5.453c3.01,0,5.45,2.438,5.453,5.448V7.709"/>
	<path d="M47.218,1.742c-1.654,0-3.053,0.575-4.197,1.729c-1.176,1.194-1.764,2.605-1.764,4.238c0,1.632,0.588,3.034,1.764,4.211
		c1.174,1.173,2.572,1.758,4.197,1.758c1.643,0,3.067-0.59,4.272-1.774c1.135-1.123,1.704-2.523,1.704-4.194
		c0-1.673-0.578-3.083-1.733-4.238C50.305,2.317,48.89,1.742,47.218,1.742 M47.234,2.815c1.353,0,2.504,0.48,3.45,1.432
		c0.956,0.946,1.434,2.102,1.434,3.463c0,1.372-0.468,2.512-1.404,3.417c-0.987,0.975-2.148,1.463-3.48,1.463
		c-1.337,0-2.487-0.482-3.452-1.447c-0.967-0.965-1.45-2.11-1.45-3.433c0-1.321,0.489-2.477,1.465-3.463
		C44.734,3.296,45.879,2.815,47.234,2.815"/>
</g>
<path d="M49.48,6.296h-4.339v1.027h4.339V6.296z M49.48,8.213h-4.339V9.24h4.339V8.213z"/>
</svg>
