<?xml version="1.0" encoding="utf-8"?>
<!-- Generator: Adobe Illustrator 16.0.0, SVG Export Plug-In . SVG Version: 6.00 Build 0)  -->
<!DOCTYPE svg PUBLIC "-//W3C//DTD SVG 1.1//EN" "http://www.w3.org/Graphics/SVG/1.1/DTD/svg11.dtd">
<svg version="1.1" id="Layer_1" xmlns="http://www.w3.org/2000/svg" xmlns:xlink="http://www.w3.org/1999/xlink" x="0px" y="0px"
	 width="79.299px" height="153.671px" viewBox="0 0 79.299 153.671" enable-background="new 0 0 79.299 153.671"
	 xml:space="preserve">
<g>
	<path fill="#FFFFFF" d="M3.3,153.671c-0.88,0-1.98-0.22-2.64-0.88c-0.88-1.32-0.88-3.3,0-4.62L71.28,77.11L0.66,5.83
		c-0.88-1.32-0.88-3.52,0-4.84c1.32-1.32,3.52-1.32,4.84,0l72.38,73.48c0.22,0,0.22,0.22,0.439,0.22c0,0.22,0.221,0.22,0.221,0.44
		c0.22,0.22,0.439,0.66,0.66,1.1c0,0.44,0.22,0.88,0,1.32v0.44c-0.221,0.22-0.44,0.66-0.66,1.1l-0.221,0.22l-0.22,0.22L5.5,152.791
		C4.84,153.451,3.96,153.671,3.3,153.671z"/>
</g>
</svg>
