<?xml version="1.0" encoding="utf-8"?>
<!-- Generator: Adobe Illustrator 16.0.0, SVG Export Plug-In . SVG Version: 6.00 Build 0)  -->
<!DOCTYPE svg PUBLIC "-//W3C//DTD SVG 1.1//EN" "http://www.w3.org/Graphics/SVG/1.1/DTD/svg11.dtd">
<svg version="1.1" id="Isolation_Mode" xmlns="http://www.w3.org/2000/svg" xmlns:xlink="http://www.w3.org/1999/xlink" x="0px"
	 y="0px" width="135px" height="120.974px" viewBox="0 0 135 120.974" enable-background="new 0 0 135 120.974"
	 xml:space="preserve">
<path fill="#F36E35" d="M80.34,40.64l-4.159-4.158l0.017-0.632L76.18,35.3l0.305-0.382l3.857-3.858
	c0.29-0.291,0.45-0.677,0.45-1.087c0-0.411-0.16-0.797-0.45-1.088c-0.581-0.581-1.597-0.582-2.174-0.001l-2.895,2.895l-0.686-0.963
	c-0.567-0.797-1.26-1.489-2.057-2.057l-0.963-0.686l2.896-2.896c0.6-0.6,0.6-1.576,0-2.176c-0.581-0.58-1.596-0.582-2.175,0
	l-4.166,4.167l-0.626-0.017l-0.548,0.018l-0.381-0.305l-3.861-3.862c-0.582-0.581-1.595-0.582-2.177,0
	c-0.29,0.29-0.45,0.676-0.45,1.087c0,0.411,0.16,0.797,0.451,1.088l2.896,2.896l-0.963,0.686c-0.798,0.568-1.49,1.26-2.056,2.057
	l-0.686,0.964l-2.894-2.894c-0.581-0.582-1.594-0.582-2.176,0c-0.6,0.6-0.6,1.577,0,2.177l4.164,4.165L58.8,35.851l0.018,0.55
	l-0.305,0.381l-3.858,3.859c-0.291,0.291-0.452,0.679-0.452,1.09s0.16,0.797,0.451,1.087c0.583,0.581,1.596,0.581,2.179,0.001
	l2.892-2.894l0.686,0.963c0.568,0.797,1.259,1.488,2.055,2.055l0.963,0.686l-2.895,2.896c-0.6,0.6-0.599,1.576,0.001,2.177
	c0.577,0.578,1.597,0.579,2.177-0.001l4.163-4.166l0.624,0.017l0.549-0.018l0.383,0.305l3.859,3.86
	c0.581,0.581,1.598,0.58,2.175,0.001c0.601-0.602,0.601-1.578,0.001-2.179l-2.894-2.892l0.963-0.687
	c0.796-0.567,1.487-1.258,2.053-2.052l0.687-0.963l2.889,2.892c0.582,0.578,1.597,0.581,2.181-0.001
	C80.942,42.219,80.941,41.242,80.34,40.64z M71.57,36.925c-0.139,0.533-0.373,1.024-0.694,1.459
	c-0.131,0.176-0.255,0.321-0.393,0.459c-0.128,0.127-0.266,0.246-0.408,0.354c-0.492,0.358-0.978,0.586-1.506,0.725
	c-0.351,0.092-0.71,0.138-1.069,0.138s-0.719-0.046-1.068-0.137c-0.54-0.143-1.03-0.374-1.459-0.69
	c-0.182-0.136-0.324-0.257-0.46-0.392c-0.134-0.134-0.255-0.277-0.367-0.425c-0.348-0.477-0.579-0.963-0.719-1.493
	c-0.181-0.704-0.181-1.44-0.001-2.136c0.142-0.537,0.373-1.024,0.688-1.455c0.143-0.192,0.264-0.334,0.398-0.469
	c0.136-0.135,0.275-0.254,0.419-0.363c0.486-0.355,0.973-0.584,1.503-0.721c0.695-0.181,1.436-0.183,2.131-0.001
	c0.533,0.139,1.023,0.37,1.455,0.687c0.195,0.148,0.336,0.268,0.469,0.4c0.136,0.138,0.258,0.28,0.368,0.427
	c0.341,0.461,0.573,0.951,0.714,1.486C71.754,35.481,71.754,36.223,71.57,36.925z"/>
<path fill="#F36E35" d="M97.092,91.546c0.043-0.826-0.172-2.073-1.436-3.338L89.4,81.954c-0.291-0.291-0.678-0.451-1.09-0.451
	c-0.411,0-0.798,0.16-1.087,0.45c-0.601,0.602-0.601,1.578-0.001,2.179l6.26,6.256c0.155,0.153,0.282,0.311,0.374,0.463l0.299,0.492
	l-0.275,0.505c-0.066,0.122-0.19,0.307-0.306,0.426l-0.077,0.072c-0.042,0.034-0.083,0.07-0.121,0.108L87.22,98.61
	c-0.599,0.6-0.599,1.576,0.001,2.177c0.582,0.58,1.591,0.583,2.177-0.003l6.091-6.091C95.877,94.345,97.01,93.216,97.092,91.546z"/>
<path fill="#F36E35" d="M41.516,92.358c-0.157-0.157-0.283-0.313-0.374-0.463l-0.297-0.489l0.272-0.504
	c0.07-0.13,0.195-0.315,0.317-0.438c0.109-0.097,0.154-0.138,0.198-0.181l6.146-6.15c0.599-0.6,0.599-1.575-0.001-2.176
	c-0.291-0.291-0.676-0.451-1.087-0.451c-0.412,0-0.799,0.16-1.09,0.452l-6.089,6.093c-0.387,0.348-1.522,1.485-1.607,3.148
	c-0.041,0.825,0.175,2.075,1.436,3.334l6.254,6.257c0.579,0.582,1.595,0.581,2.177,0.001c0.291-0.29,0.451-0.677,0.451-1.088
	c0-0.412-0.16-0.799-0.451-1.09L41.516,92.358z"/>
<path fill="#F36E35" d="M76.922,111.098c-0.581-0.582-1.598-0.583-2.176,0l-6.256,6.259c-0.177,0.178-0.352,0.314-0.519,0.402
	l-0.446,0.234l-0.454-0.218c-0.174-0.084-0.372-0.224-0.493-0.348c-0.096-0.111-0.135-0.151-0.174-0.192l-6.138-6.141
	c-0.291-0.291-0.677-0.451-1.087-0.451c-0.412,0-0.799,0.161-1.091,0.452c-0.29,0.29-0.45,0.677-0.45,1.087s0.16,0.796,0.45,1.086
	l6.09,6.093c0.347,0.389,1.474,1.521,3.146,1.607c0.068,0.005,0.128,0.005,0.188,0.005c1.135,0,2.195-0.485,3.154-1.441l6.256-6.26
	C77.521,112.673,77.521,111.697,76.922,111.098z"/>
<path fill="#F36E35" d="M67.492,0C48.313,0,32.709,15.606,32.709,34.788c0,18.247,14.061,33.481,32.013,34.686l0.495-0.063
	l0.347,0.483c0.364,0.508,0.443,1.485,0.407,1.982c-0.01,0.09-0.01,0.132-0.01,0.174v8.895c-0.017,0.395,0.009,1.28,0.598,1.975
	c0.391,0.46,0.951,0.737,1.578,0.778c3.95,0.265,7.045,3.629,7.045,7.658c0,4.235-3.445,7.682-7.681,7.682
	c-4.237,0-7.684-3.446-7.684-7.682c0-1.105,0.232-2.177,0.688-3.183c0.35-0.771,0.005-1.686-0.768-2.038
	C59.537,86.045,59.324,86,59.105,86c-0.604,0-1.155,0.354-1.404,0.903c-0.64,1.409-0.964,2.908-0.964,4.454
	c0,5.934,4.828,10.761,10.763,10.761c5.933,0,10.76-4.827,10.76-10.761c0-5.056-3.545-9.48-8.43-10.522l-0.791-0.168v-8.513
	c0.045-0.688,0.084-2.826-1.194-4.334c-0.718-0.848-1.725-1.338-2.913-1.419c-16.342-1.09-29.145-14.976-29.145-31.613
	c0-17.484,14.222-31.709,31.704-31.709c17.49,0,31.72,14.225,31.72,31.709c0,8.469-3.301,16.434-9.294,22.427
	c-0.599,0.6-0.599,1.576,0.001,2.178c0.58,0.58,1.595,0.581,2.177-0.001c6.574-6.573,10.195-15.311,10.195-24.604
	C102.291,15.606,86.68,0,67.492,0z"/>
<path fill="#F36E35" d="M67.499,89.15c-1.226,0-2.223,0.997-2.223,2.223s0.997,2.223,2.223,2.223c1.225,0,2.222-0.997,2.222-2.223
	S68.723,89.15,67.499,89.15z"/>
</svg>
