<?xml version="1.0" encoding="utf-8"?>
<!-- Generator: Adobe Illustrator 16.0.0, SVG Export Plug-In . SVG Version: 6.00 Build 0)  -->
<!DOCTYPE svg PUBLIC "-//W3C//DTD SVG 1.1//EN" "http://www.w3.org/Graphics/SVG/1.1/DTD/svg11.dtd">
<svg version="1.1" id="Layer_1" xmlns="http://www.w3.org/2000/svg" xmlns:xlink="http://www.w3.org/1999/xlink" x="0px" y="0px"
	 width="65.179px" height="33.824px" viewBox="0 0 65.179 33.824" enable-background="new 0 0 65.179 33.824" xml:space="preserve">
<g>
	<defs>
		<rect id="SVGID_1_" width="65.179" height="33.824"/>
	</defs>
	<clipPath id="SVGID_2_">
		<use xlink:href="#SVGID_1_"  overflow="visible"/>
	</clipPath>
	<path clip-path="url(#SVGID_2_)" fill="#006FBA" d="M44.091,12.982c-0.41-0.304-1.051-0.49-1.676-0.479
		c-0.676,0.008-1.324,0.226-1.773,0.584V8.815h-2.114v13.931h2.114v-7.27c0-0.507,0.426-1.064,1.215-1.099
		c0.349-0.015,0.837,0.136,1.082,0.504c0.263,0.392,0.246,0.91,0.246,1.479l-0.002,6.386h2.112v-6.468
		C45.295,14.371,45.047,13.692,44.091,12.982"/>
	<path clip-path="url(#SVGID_2_)" fill="#006FBA" d="M26.898,17.765c0,1.364-0.043,1.749-0.055,1.867
		c-0.071,0.755-0.395,1.558-1.275,1.558c-0.88,0-1.238-0.856-1.275-1.596c-0.001-0.004-0.055-0.465-0.055-1.829
		s0.054-1.934,0.055-1.938c0.011-0.769,0.409-1.538,1.275-1.538c0.867,0,1.266,0.77,1.274,1.531
		C26.844,15.831,26.898,16.4,26.898,17.765 M28.942,16.121c-0.299-2.978-1.991-3.616-3.378-3.616c-1.967,0-3.165,1.25-3.381,3.613
		c-0.017,0.188-0.048,0.535-0.059,1.646c-0.007,0.812,0.044,1.477,0.054,1.645c0.138,2.205,1.402,3.564,3.386,3.564
		c1.982,0,3.246-1.384,3.384-3.565c0.009-0.157,0.055-0.832,0.055-1.644C29.003,17.399,28.97,16.402,28.942,16.121"/>
	<path clip-path="url(#SVGID_2_)" fill="#006FBA" d="M48.823,16.512c0.016-0.462,0.016-0.558,0.024-0.692
		c0.061-0.834,0.432-1.524,1.288-1.531c1.015-0.008,1.252,0.986,1.288,1.536c0.02,0.289,0.041,0.482,0.038,0.688H48.823
		 M51.433,19.302c0,0,0.004,0.155-0.018,0.345c-0.059,0.492-0.256,1.543-1.284,1.543c-0.876,0-1.211-0.798-1.271-1.591
		c-0.013-0.226-0.054-0.476-0.052-1.333h4.713c0,0,0.008-0.7-0.005-1.123c-0.007-0.165-0.015-0.441-0.055-1.022
		c-0.064-0.893-0.398-1.87-0.909-2.5c-0.593-0.731-1.43-1.115-2.422-1.115c-1.903,0-3.093,1.237-3.327,3.614
		c-0.021,0.212-0.056,0.508-0.056,1.646c0,0.812,0.044,1.488,0.054,1.645c0.129,2.169,1.411,3.563,3.329,3.563
		c1.916,0,3.198-1.358,3.331-3.671H51.433z"/>
	<path clip-path="url(#SVGID_2_)" fill="#006FBA" d="M15.441,1.706h34.347l13.134,15.365L49.791,32.226H15.44L2.255,17.02
		L15.441,1.706z M50.619,0H14.61L0,16.966l14.612,16.858h36.006l14.561-16.802L50.619,0z"/>
	<path clip-path="url(#SVGID_2_)" fill="#006FBA" d="M15.865,10.709h1c1.087,0,1.677,0.577,1.704,1.605
		c0.002,0.076,0.011,0.162,0.011,0.323c0,0.188-0.003,0.251-0.011,0.325c-0.061,0.611-0.328,1.68-1.603,1.68h-1.102V10.709
		 M20.872,21.886c0,0.001-0.218-3.421-0.218-3.421c-0.094-1.53-0.493-2.43-1.283-2.893c0.571-0.344,1.311-1.194,1.304-2.972
		c-0.011-2.704-1.689-3.651-3.668-3.674h-3.229v13.82h2.086l0.001-6.321h1.161c0.671,0,1.429,0.587,1.543,2.235l0.218,3.235
		c0.017,0.459,0.104,0.852,0.104,0.852h2.087C20.979,22.748,20.889,22.369,20.872,21.886"/>
	<path clip-path="url(#SVGID_2_)" fill="#006FBA" d="M35.115,19.206c-0.008,0.154-0.017,0.292-0.024,0.388
		c-0.061,0.773-0.333,1.596-1.277,1.596c-0.879,0-1.228-0.892-1.292-1.546c-0.039-0.397-0.03-0.705-0.037-1.88
		c-0.01-1.363,0.034-1.715,0.054-1.938c0.073-0.862,0.409-1.531,1.275-1.538c0.892-0.006,1.267,0.769,1.277,1.531
		c0,0.007,0.017,0.19,0.032,0.596h2.09c-0.006-0.139-0.013-0.256-0.018-0.324c-0.237-2.887-1.997-3.586-3.385-3.586
		c-1.966,0-3.165,1.25-3.381,3.613c-0.016,0.188-0.047,0.536-0.058,1.646c-0.008,0.813,0.045,1.478,0.055,1.646
		c0.136,2.205,1.4,3.558,3.384,3.563c2.055,0.008,3.188-1.245,3.385-3.564c0.007-0.086,0.019-0.144,0.012-0.202H35.115"/>
</g>
</svg>
