<?xml version="1.0" encoding="utf-8"?>
<!-- Generator: Adobe Illustrator 17.1.0, SVG Export Plug-In . SVG Version: 6.00 Build 0)  -->
<!DOCTYPE svg PUBLIC "-//W3C//DTD SVG 1.0//EN" "http://www.w3.org/TR/2001/REC-SVG-20010904/DTD/svg10.dtd">
<svg version="1.0" id="Calque_1" xmlns="http://www.w3.org/2000/svg" xmlns:xlink="http://www.w3.org/1999/xlink" x="0px" y="0px"
	 viewBox="0 0 235 70" enable-background="new 0 0 235 70" xml:space="preserve">
<g>
	<path fill="#231F20" d="M62.235,44.414l-3.329-3.329l0,0l-3.329-3.329l0,0l-2.018-2.018l10.535-10.535L51.488,12.596L17.81,46.274
		l12.607,12.608l10.535-10.535l10.535,10.535l4.822-4.823l0,0l2.962-2.962l0,0l2.962-2.962l0,0l1.86-1.861L62.235,44.414
		L62.235,44.414z M62.961,25.204l-9.968,9.968l-0.743-0.743l0,0L48.921,31.1l0,0l-3.329-3.329l0,0l-3.329-3.329l0,0l-0.743-0.743
		l9.968-9.968L62.961,25.204z M38.8,45.059l-9.32-9.32l11.473-11.473l11.473,11.473L40.953,47.212l-0.744-0.744l0,0L38.8,45.059z
		 M30.418,57.747L18.945,46.274l9.968-9.968l0.744,0.744l0,0l3.329,3.329l0,0l3.329,3.329l0,0l1.908,1.908l2.164,2.164
		L30.418,57.747z M52.993,36.306l9.968,9.968l-10.18,10.18l0,0l-1.293,1.293l-1.293-1.293l0,0l-3.329-3.329l0,0l-3.329-3.329l0,0
		l-2.018-2.018L52.993,36.306z"/>
	
		<rect x="22.593" y="31.372" transform="matrix(-0.7071 -0.7071 0.7071 -0.7071 20.1199 71.8807)" fill="#231F20" width="4.707" height="0.802"/>
	<polygon fill="#231F20" points="20.238,26.497 18.945,25.204 20.238,23.911 19.67,23.343 17.81,25.204 19.67,27.064 	"/>
	
		<rect x="23.997" y="17.089" transform="matrix(0.7071 0.7071 -0.7071 0.7071 20.7108 -11.633)" fill="#231F20" width="0.802" height="4.189"/>
	<polygon fill="#231F20" points="30.418,13.731 31.711,15.024 32.278,14.456 30.418,12.596 28.558,14.456 29.125,15.024 	"/>
	
		<rect x="34.634" y="19.332" transform="matrix(0.7071 0.7071 -0.7071 0.7071 24.7867 -20.3744)" fill="#231F20" width="4.707" height="0.802"/>
	<polygon fill="#231F20" points="45.979,32.109 45.979,39.369 49.609,35.739 	"/>
</g>
<g>
	<g>
		<path fill="#231F20" d="M90.685,46.987H85.91V24.491h4.958l6.06,15.364l5.968-15.364h4.928v22.495h-4.774v-9.121l-3.765,9.121
			h-4.713l-3.887-9.274V46.987z"/>
		<path fill="#231F20" d="M127.901,46.987l-1.163-3.305h-9.059l-1.163,3.305h-5.081l8.019-22.465h5.509l8.019,22.465H127.901z
			 M119.332,39.06h5.754l-2.877-8.049L119.332,39.06z"/>
		<path fill="#231F20" d="M153.212,24.491c0,1.143-0.077,2.199-0.23,3.168c-0.153,0.969-0.357,1.857-0.612,2.662
			c-0.255,0.806-0.546,1.53-0.872,2.173c-0.327,0.643-0.654,1.209-0.98,1.698c-0.795,1.163-1.683,2.102-2.663,2.816
			c0.959,0,1.806,0.143,2.54,0.428c0.735,0.286,1.373,0.663,1.913,1.132c0.54,0.47,0.995,1.005,1.362,1.607
			c0.368,0.602,0.674,1.209,0.918,1.821c0.551,1.469,0.878,3.132,0.98,4.989h-4.621c0-0.674-0.072-1.27-0.214-1.791
			c-0.144-0.52-0.327-0.974-0.551-1.362c-0.225-0.388-0.48-0.714-0.765-0.98c-0.286-0.265-0.582-0.49-0.888-0.674
			c-0.694-0.408-1.49-0.642-2.387-0.704h-5.539v5.509h-4.591V24.491h4.591v10.223c0.959,0,1.81-0.148,2.555-0.444
			c0.744-0.296,1.392-0.678,1.943-1.148c0.551-0.469,1.026-1.01,1.424-1.622c0.398-0.612,0.729-1.245,0.995-1.898
			c0.612-1.489,0.999-3.193,1.163-5.111H153.212z"/>
		<path fill="#231F20" d="M164.016,29.174v4.56h10.1v4.683h-10.1v3.857h10.497v4.683h-15.15V24.522h15.15v4.652H164.016z"/>
		<path fill="#231F20" d="M196.029,38.998c0.592,0.531,1.102,1.128,1.53,1.791c0.428,0.663,0.78,1.347,1.056,2.051
			c0.275,0.704,0.474,1.413,0.596,2.127c0.122,0.715,0.184,1.388,0.184,2.02H197.1h-2.326c0-0.143-0.015-0.383-0.046-0.719
			c-0.031-0.337-0.097-0.709-0.199-1.117c-0.103-0.408-0.256-0.827-0.459-1.255c-0.204-0.428-0.485-0.826-0.842-1.194
			c-0.357-0.368-0.801-0.663-1.332-0.887c-0.53-0.224-1.173-0.337-1.928-0.337h-5.539v5.509h-4.591V24.491h10.13
			c0.081,0,0.306,0.015,0.674,0.046c0.367,0.031,0.811,0.122,1.331,0.275c0.521,0.153,1.087,0.383,1.699,0.689
			c0.612,0.306,1.203,0.745,1.775,1.316c1.693,1.694,2.54,4.019,2.54,6.978c0,1.163-0.179,2.173-0.536,3.03
			C197.095,37.682,196.621,38.407,196.029,38.998z M189.969,36.856c0.245,0,0.561-0.035,0.949-0.107
			c0.387-0.071,0.765-0.214,1.132-0.428c0.368-0.214,0.678-0.521,0.934-0.918c0.254-0.398,0.383-0.934,0.383-1.607
			c0-1.061-0.138-1.902-0.413-2.525c-0.275-0.622-0.602-1.092-0.98-1.408c-0.377-0.316-0.76-0.52-1.148-0.612
			c-0.388-0.092-0.683-0.137-0.887-0.137h-5.509v7.743H189.969z"/>
		<path fill="#231F20" d="M213.29,39.825v7.1h-4.683v-7.039l-7.161-15.334h5.05l4.469,10.865l4.468-10.865h4.989L213.29,39.825z"/>
	</g>
</g>
</svg>
